<svg version="1.1" id="spire-logo" xmlns="http://www.w3.org/2000/svg" xmlns:xlink="http://www.w3.org/1999/xlink" x="0px" y="0px"
	 viewBox="0 0 200 300" style="enable-background:new 0 0 200 300;" xml:space="preserve">
<style type="text/css">
	.logo-color{fill:#040504;}
</style>
<g id="Symbol">
	<path class="logo-color" d="M118.7,53.6c0-4.4-1.9-8.5-5.2-11.3c-1.6-1.6-4-4.2-4-6.3c0-3,1.1-4.4,3.2-6.5c6.6-5,8-14.3,3.1-21
		s-14.3-8-21-3.1c-6.6,5-8,14.3-3.1,21c0.4,0.6,0.9,1.1,1.4,1.6l0,0c0.3,0.3,0.6,0.5,0.8,0.8c3.6,3.4,3.9,5,3.9,6.7
		s-1.1,3.9-3.4,6.2C87.9,47,86.8,56.4,92,62.9c0.4,0.5,0.7,0.9,1.1,1.3l0,0c0.3,0.3,0.6,0.5,0.8,0.8c3.6,3.4,3.9,5,3.9,6.7
		s-1.1,3.9-3.4,6.2C88,83.1,86.8,92.5,91.9,99s14.5,7.7,21.1,2.6c6.5-5.1,7.7-14.5,2.6-21.1c-0.6-0.8-1.3-1.5-2.1-2.2
		c-1.6-1.6-4-4.2-4-6.3c0-3,1.1-4.4,3.2-6.5l0,0C116.5,62.8,118.7,58.4,118.7,53.6z"/>
	<path class="logo-color" d="M153.4,100c-1.6-1.6-4-4.2-4-6.3c0-3,1.1-4.4,3.2-6.5c6.7-4.9,8.1-14.3,3.1-21c-4.9-6.7-14.3-8.1-21-3.1
		c-6.7,4.9-8.1,14.3-3.1,21c0.4,0.6,0.9,1.2,1.5,1.7l0,0c0.3,0.3,0.6,0.5,0.8,0.8c3.6,3.4,3.9,5,3.9,6.7s-1.1,3.9-3.4,6.2
		c-6.5,5.1-7.7,14.5-2.6,21.1c5.1,6.5,14.5,7.7,21.1,2.6c6.5-5.1,7.7-14.5,2.6-21.1C154.8,101.4,154.1,100.6,153.4,100L153.4,100z"
		/>
	<path class="logo-color" d="M113.5,157.6c-1.6-1.6-4-4.2-4-6.3c0-3,1.1-4.4,3.2-6.5c6.6-5,8-14.4,3.1-21c-5-6.6-14.4-8-21-3.1
		s-8,14.4-3.1,21c0.4,0.6,0.9,1.1,1.4,1.6l0,0c0.3,0.3,0.6,0.5,0.8,0.8c3.6,3.4,3.9,5.1,3.9,6.7s-1.1,3.9-3.4,6.2
		c-6.5,5.1-7.7,14.5-2.6,21.1s14.5,7.7,21.1,2.6c6.5-5.1,7.7-14.5,2.6-21.1C114.9,159,114.2,158.3,113.5,157.6L113.5,157.6z"/>
	<path class="logo-color" d="M73.6,136.1c-1.6-1.6-4-4.2-4-6.3c0-3,1.1-4.4,3.2-6.5c6.6-5,8-14.3,3.1-21s-14.3-8-21-3.1s-8,14.3-3.1,21
		c0.4,0.6,0.9,1.1,1.4,1.6l0,0c0.3,0.3,0.6,0.5,0.8,0.8c3.6,3.4,3.9,5,3.9,6.7s-1.1,3.9-3.4,6.2c-6.5,5.1-7.7,14.5-2.6,21.1
		c5.1,6.5,14.5,7.7,21.1,2.6c6.5-5.1,7.7-14.5,2.6-21.1C75,137.4,74.4,136.7,73.6,136.1L73.6,136.1z"/>
</g>
<g id="text">
	<path d="M8.1,279.8c-2.3-1-4.4-2.5-6.1-4.5c-1.3-1.7-2-3.1-2-4.2c0-0.5,0.2-1,0.6-1.4c0.4-0.3,0.8-0.5,1.3-0.5h3.6
		c0.3,0,0.6,0,0.8,0.2c0.3,0.2,0.6,0.5,0.8,0.8c1.2,1.5,2.7,2.8,4.4,3.8c2,1,4.3,1.5,6.6,1.4c2.6,0.1,5.2-0.5,7.4-1.7
		c1.8-1,2.9-2.9,2.8-5c0.1-1.3-0.4-2.5-1.2-3.5c-1.1-1.1-2.5-1.9-4-2.3c-2.7-0.9-5.5-1.7-8.3-2.3c-5-1.1-8.5-2.7-10.6-4.8
		c-2.1-2.2-3.2-5.1-3.1-8.1c0-2.2,0.7-4.4,1.9-6.2c1.4-2.1,3.3-3.8,5.6-4.9c2.8-1.3,5.8-2,8.9-1.9c3.2-0.1,6.3,0.5,9.3,1.8
		c2.2,1,4.2,2.4,5.8,4.3c1.3,1.6,1.9,3,1.9,4.1c0,0.5-0.2,1-0.6,1.3c-0.4,0.3-0.8,0.5-1.3,0.5h-3.3c-0.7,0-1.4-0.4-1.7-1
		c-1-1.1-1.8-1.9-2.5-2.6c-0.8-0.7-1.8-1.2-2.9-1.6c-1.5-0.5-3.1-0.7-4.7-0.6c-2.8,0-5,0.6-6.5,1.8c-1.4,1.1-2.3,2.9-2.2,4.7
		c0,1.1,0.3,2.2,0.9,3.1c1,1.1,2.2,1.9,3.6,2.4c2.6,0.9,5.2,1.7,7.9,2.2c5.5,1.2,9.3,2.8,11.6,5c2.3,2.1,3.5,5.1,3.4,8.2
		c0,2.4-0.7,4.8-2.1,6.8c-1.6,2.2-3.8,3.8-6.4,4.7c-3.2,1.2-6.5,1.8-9.9,1.7C14.6,281.8,11.2,281.2,8.1,279.8"/>
	<path d="M75.7,271.1c2-3,3.1-6.6,3.1-10.2c0.1-0.6,0.1-1.4,0.1-2.5c0-11.1-3.4-16.7-11.6-16.7c-4.1,0-6.7,1.4-8.8,4
		c-2.1,2.7-3.2,6.1-3.3,9.5c-0.1,0.7-0.1,1.8-0.1,3.4c0,1.6,0,2.8,0.1,3.4c0,3.3,1.2,6.6,3.3,9.2c2.1,2.6,4.7,3.9,8.7,3.9
		C71.4,274.9,73.8,273.6,75.7,271.1 M47.9,296.9c-0.4-0.4-0.6-0.9-0.6-1.5v-57.6c0-0.5,0.2-1.1,0.6-1.5c0.4-0.4,0.9-0.5,1.4-0.5H53
		c1-0.1,1.9,0.6,2,1.6c0,0.1,0,0.3,0,0.4v3.8c3.4-4.4,7.7-6.7,13.9-6.7s9.9,1.9,13,5.8s4.4,8.8,4.6,14.7c0,0.6,0.1,1.6,0.1,3
		s0,2.3-0.1,3c-0.2,5.9-1.6,10.8-4.6,14.7s-6.9,5.8-13,5.8s-10.5-2.2-13.7-6.6v20.2c0,1.1-0.8,2-1.8,2c-0.1,0-0.1,0-0.2,0h-3.9
		C48.8,297.5,48.3,297.3,47.9,296.9"/>
	<path d="M100.3,280.3c-0.4-0.4-0.6-0.9-0.6-1.4v-41.1c0-0.5,0.2-1,0.6-1.4c0.4-0.4,0.9-0.6,1.4-0.6h3.8c1.1,0,2,0.8,2,1.8
		c0,0.1,0,0.1,0,0.2v41.1c0,0.5-0.2,1.1-0.6,1.4c-0.4,0.4-0.9,0.6-1.4,0.6h-3.8C101.2,280.9,100.7,280.7,100.3,280.3 M99.6,226.7
		c-0.4-0.4-0.6-0.9-0.6-1.4v-4.5c0-0.5,0.2-1.1,0.6-1.5c0.4-0.4,0.9-0.6,1.4-0.6h5.1c1.1,0,2.1,0.9,2.1,2c0,0,0,0,0,0v4.5
		c0,0.5-0.2,1.1-0.6,1.4c-0.4,0.4-0.9,0.6-1.5,0.6H101C100.5,227.3,99.9,227.1,99.6,226.7"/>
	<path d="M124.5,280.3c-0.4-0.4-0.6-0.9-0.6-1.4v-41.1c0-0.5,0.2-1.1,0.6-1.5c0.4-0.4,0.9-0.6,1.4-0.6h3.6c1.1-0.1,2,0.7,2.1,1.8
		c0,0.1,0,0.2,0,0.3v3.8c2.4-3.9,6.4-5.9,12.1-5.9h7.6c1-0.1,1.9,0.6,2,1.6c0,0.1,0,0.3,0,0.4v3.2c0,0.5-0.2,1-0.5,1.4
		c-0.4,0.4-0.9,0.6-1.5,0.6h-9.2c-2.8-0.2-5.5,0.9-7.5,2.8c-1.9,2-2.9,4.8-2.7,7.6v25.6c0,0.5-0.2,1.1-0.6,1.4
		c-0.4,0.4-0.9,0.6-1.5,0.6h-3.9C125.4,280.9,124.9,280.7,124.5,280.3"/>
	<path d="M192.1,255.1v-0.3c0.2-3.6-1-7.1-3.3-9.9c-2.2-2.6-5.5-4-8.9-3.8c-3.4-0.2-6.7,1.3-8.9,3.8c-2.2,2.8-3.4,6.3-3.2,9.9v0.3
		H192.1z M165.8,276.2c-3.5-3.7-5.5-8.7-5.8-15.1l-0.1-3l0.1-2.9c0.4-6.2,2.3-11.2,5.8-14.9c3.5-3.7,8.3-5.6,14.2-5.5
		c6.4,0,11.3,2,14.8,6.1c3.5,4.1,5.2,9.6,5.2,16.5v1.5c0,1.1-0.8,2-1.9,2c0,0-0.1,0-0.1,0h-30.1v0.8c0.1,3.5,1.3,6.9,3.5,9.6
		c2,2.6,5.2,4.1,8.5,4c2.3,0.1,4.6-0.5,6.6-1.6c1.5-0.9,2.8-2,3.9-3.3c0.3-0.5,0.7-0.9,1.2-1.3c0.5-0.2,1-0.2,1.5-0.2h3.8
		c0.5,0,1,0.1,1.4,0.4c0.4,0.3,0.6,0.7,0.6,1.1c0,1.3-0.8,2.8-2.3,4.6c-1.9,2-4.1,3.6-6.6,4.6c-3.1,1.3-6.5,2-9.9,2
		C174,281.8,169.3,279.9,165.8,276.2"/>
</g>
</svg>