<svg version="1.1" id="spire-symbol" xmlns="http://www.w3.org/2000/svg" xmlns:xlink="http://www.w3.org/1999/xlink" x="0px"
	 y="0px" viewBox="0 0 200 182" style="enable-background:new 0 0 200 182;" xml:space="preserve">
<style type="text/css">
	.sym-color{fill:#1D3F3D;}
</style>
<path class="sym-color" d="M118.7,53.6c0-4.4-1.9-8.5-5.2-11.3c-1.6-1.6-4-4.2-4-6.3c0-3,1.1-4.4,3.2-6.5c6.6-5,8-14.3,3.1-21
	s-14.3-8-21-3.1c-6.6,5-8,14.3-3.1,21c0.4,0.6,0.9,1.1,1.4,1.6l0,0c0.3,0.3,0.6,0.5,0.8,0.8c3.6,3.4,3.9,5,3.9,6.7s-1.1,3.9-3.4,6.2
	C87.9,47,86.8,56.4,92,62.9c0.4,0.5,0.7,0.9,1.1,1.3l0,0c0.3,0.3,0.6,0.5,0.8,0.8c3.6,3.4,3.9,5,3.9,6.7s-1.1,3.9-3.4,6.2
	C88,83.1,86.8,92.5,91.9,99s14.5,7.7,21.1,2.6c6.5-5.1,7.7-14.5,2.6-21.1c-0.6-0.8-1.3-1.5-2.1-2.2c-1.6-1.6-4-4.2-4-6.3
	c0-3,1.1-4.4,3.2-6.5l0,0C116.5,62.8,118.7,58.4,118.7,53.6z"/>
<path class="sym-color" d="M153.4,100c-1.6-1.6-4-4.2-4-6.3c0-3,1.1-4.4,3.2-6.5c6.7-4.9,8.1-14.3,3.1-21c-4.9-6.7-14.3-8.1-21-3.1
	c-6.7,4.9-8.1,14.3-3.1,21c0.4,0.6,0.9,1.2,1.5,1.7l0,0c0.3,0.3,0.6,0.5,0.8,0.8c3.6,3.4,3.9,5,3.9,6.7s-1.1,3.9-3.4,6.2
	c-6.5,5.1-7.7,14.5-2.6,21.1c5.1,6.5,14.5,7.7,21.1,2.6c6.5-5.1,7.7-14.5,2.6-21.1C154.8,101.4,154.1,100.6,153.4,100L153.4,100z"/>
<path class="sym-color" d="M113.5,157.6c-1.6-1.6-4-4.2-4-6.3c0-3,1.1-4.4,3.2-6.5c6.6-5,8-14.4,3.1-21c-5-6.6-14.4-8-21-3.1
	s-8,14.4-3.1,21c0.4,0.6,0.9,1.1,1.4,1.6l0,0c0.3,0.3,0.6,0.5,0.8,0.8c3.6,3.4,3.9,5.1,3.9,6.7s-1.1,3.9-3.4,6.2
	c-6.5,5.1-7.7,14.5-2.6,21.1s14.5,7.7,21.1,2.6c6.5-5.1,7.7-14.5,2.6-21.1C114.9,159,114.2,158.3,113.5,157.6L113.5,157.6z"/>
<path class="sym-color" d="M73.6,136.1c-1.6-1.6-4-4.2-4-6.3c0-3,1.1-4.4,3.2-6.5c6.6-5,8-14.3,3.1-21s-14.3-8-21-3.1s-8,14.3-3.1,21
	c0.4,0.6,0.9,1.1,1.4,1.6l0,0c0.3,0.3,0.6,0.5,0.8,0.8c3.6,3.4,3.9,5,3.9,6.7s-1.1,3.9-3.4,6.2c-6.5,5.1-7.7,14.5-2.6,21.1
	c5.1,6.5,14.5,7.7,21.1,2.6c6.5-5.1,7.7-14.5,2.6-21.1C75,137.4,74.4,136.7,73.6,136.1L73.6,136.1z"/>
</svg>